<?xml version="1.0" encoding="utf-8"?>
<!-- Generator: Adobe Illustrator 26.2.1, SVG Export Plug-In . SVG Version: 6.00 Build 0)  -->
<svg version="1.1" id="Layer_1" xmlns="http://www.w3.org/2000/svg" xmlns:xlink="http://www.w3.org/1999/xlink" x="0px" y="0px"
	 viewBox="0 0 458 177" style="enable-background:new 0 0 458 177;" xml:space="preserve">
<style type="text/css">
	.st0{fill:#3E4B51;}
	.st1{fill:#099AC6;}
	.st2{fill:#099AC6;stroke:#099AC6;stroke-width:0.5;stroke-miterlimit:10;}
	.st3{fill:#3E4B51;stroke:#3E4B51;stroke-miterlimit:10;}
</style>
<g>
	<g>
		<g>
			<path class="st0" d="M39.86,75.9c6.43,1.17,15.2-1.17,15.2-8.77c-0.21-0.19-0.4-0.41-0.6-0.61H26.91
				c2.13,18.83,17.67,33.6,36.85,34.5l0-24.86C56.46,80.04,47.34,80.3,39.86,75.9z"/>
			<path class="st0" d="M50.38,36.73c-1.17,6.43,1.17,15.2,8.77,15.2c1.38-1.48,2.94-2.75,4.62-3.83l0-14.29l0-10.61c0,0,0,0,0,0
				c-0.06,0-0.11,0.01-0.17,0.01c-19.11,0.97-34.57,15.71-36.69,34.49h21.87C46.25,50.98,46.55,43.23,50.38,36.73z"/>
		</g>
		<g>
			<path class="st1" d="M81.01,66.52c2.11,6.46,1.63,13.74-1.99,19.9c1.17-6.43-1.17-15.2-8.77-15.2c-0.88,0.95-1.83,1.8-2.84,2.59
				l0,27.21c0.01,0,0.02,0,0.02,0c19.17-0.91,34.7-15.67,36.83-34.49H81.01z"/>
			<path class="st1" d="M89.54,47.25c-6.43-1.17-15.2,1.17-15.2,8.77c0.57,0.53,1.11,1.09,1.62,1.67h28.3
				c-2.12-18.78-17.59-33.52-36.69-34.49c-0.05,0-0.09,0-0.14-0.01c-0.01,0-0.02,0-0.03,0l0,22.92
				C74.38,43.09,82.66,43.21,89.54,47.25z"/>
		</g>
	</g>
	<g>
		<path class="st1" d="M126.22,56.99c-0.24-0.22-0.36-0.51-0.36-0.86V31.64h-8.42c-0.35,0-0.65-0.11-0.88-0.33
			c-0.24-0.22-0.36-0.51-0.36-0.86v-5.36c0-0.35,0.12-0.65,0.36-0.89c0.24-0.24,0.53-0.36,0.88-0.36h25.97
			c0.35,0,0.65,0.12,0.88,0.36c0.24,0.24,0.36,0.53,0.36,0.89v5.36c0,0.35-0.12,0.64-0.36,0.86c-0.24,0.22-0.53,0.33-0.88,0.33
			h-8.42v24.49c0,0.35-0.12,0.64-0.36,0.86c-0.24,0.22-0.53,0.33-0.88,0.33h-6.65C126.75,57.32,126.45,57.21,126.22,56.99z"/>
		<path class="st1" d="M148.74,56.96c-0.24-0.24-0.36-0.52-0.36-0.84V25.09c0-0.35,0.11-0.65,0.33-0.89
			c0.22-0.24,0.51-0.36,0.86-0.36h22.57c0.35,0,0.65,0.12,0.88,0.36c0.24,0.24,0.36,0.53,0.36,0.89v4.73c0,0.35-0.12,0.64-0.36,0.86
			c-0.24,0.22-0.53,0.34-0.88,0.34h-15.11v6.07h14.06c0.35,0,0.65,0.12,0.88,0.36s0.36,0.53,0.36,0.89v4.35
			c0,0.35-0.12,0.65-0.36,0.89c-0.24,0.24-0.53,0.36-0.88,0.36h-14.06v6.22h15.49c0.35,0,0.65,0.12,0.88,0.36
			c0.24,0.24,0.36,0.53,0.36,0.88v4.73c0,0.35-0.12,0.64-0.36,0.86c-0.24,0.22-0.53,0.33-0.88,0.33h-22.96
			C149.26,57.32,148.98,57.2,148.74,56.96z"/>
		<path class="st1" d="M180.54,54.5c-2.6-2.2-3.98-5.42-4.14-9.66c-0.03-0.86-0.05-2.26-0.05-4.21c0-1.98,0.02-3.41,0.05-4.3
			c0.16-4.14,1.55-7.34,4.18-9.59c2.63-2.25,6.19-3.37,10.69-3.37c2.84,0,5.38,0.46,7.63,1.39c2.25,0.93,4.02,2.26,5.33,4.02
			c1.31,1.75,1.99,3.83,2.06,6.22c0,0.29-0.1,0.53-0.31,0.72c-0.21,0.19-0.45,0.29-0.74,0.29h-6.79c-0.45,0-0.77-0.09-0.98-0.26
			c-0.21-0.17-0.39-0.5-0.55-0.98c-0.45-1.56-1.12-2.65-2.03-3.28c-0.91-0.62-2.11-0.93-3.61-0.93c-3.6,0-5.47,2.01-5.6,6.03
			c-0.03,0.86-0.05,2.18-0.05,3.97c0,1.79,0.02,3.14,0.05,4.07c0.13,4.02,1.99,6.02,5.6,6.02c1.47,0,2.67-0.32,3.61-0.96
			c0.94-0.64,1.62-1.72,2.03-3.25c0.13-0.48,0.3-0.8,0.53-0.98c0.22-0.17,0.56-0.26,1-0.26h6.79c0.29,0,0.53,0.1,0.74,0.29
			c0.21,0.19,0.31,0.43,0.31,0.72c-0.06,2.39-0.75,4.46-2.06,6.22c-1.31,1.75-3.08,3.09-5.33,4.02c-2.25,0.92-4.79,1.39-7.63,1.39
			C186.72,57.8,183.14,56.7,180.54,54.5z"/>
		<path class="st1" d="M211.03,56.99c-0.22-0.22-0.33-0.51-0.33-0.86V25.09c0-0.35,0.11-0.65,0.33-0.89
			c0.22-0.24,0.51-0.36,0.86-0.36h6.55c0.35,0,0.65,0.12,0.89,0.36c0.24,0.24,0.36,0.53,0.36,0.89v11.33h11.29V25.09
			c0-0.35,0.12-0.65,0.36-0.89c0.24-0.24,0.53-0.36,0.88-0.36h6.5c0.35,0,0.65,0.12,0.88,0.36c0.24,0.24,0.36,0.53,0.36,0.89v31.04
			c0,0.35-0.12,0.64-0.36,0.86c-0.24,0.22-0.53,0.33-0.88,0.33h-6.5c-0.35,0-0.65-0.11-0.88-0.33c-0.24-0.22-0.36-0.51-0.36-0.86
			V44.41h-11.29v11.72c0,0.35-0.12,0.64-0.36,0.86c-0.24,0.22-0.53,0.33-0.89,0.33h-6.55C211.54,57.32,211.25,57.21,211.03,56.99z"
			/>
		<path class="st1" d="M246.35,56.96c-0.24-0.24-0.36-0.52-0.36-0.84V25.09c0-0.35,0.11-0.65,0.33-0.89
			c0.22-0.24,0.51-0.36,0.86-0.36h5.4c0.73,0,1.27,0.3,1.63,0.91l11.29,17.84v-17.5c0-0.35,0.11-0.65,0.33-0.89
			c0.22-0.24,0.51-0.36,0.86-0.36h6.07c0.35,0,0.64,0.12,0.86,0.36c0.22,0.24,0.33,0.53,0.33,0.89v30.99c0,0.35-0.11,0.65-0.33,0.88
			c-0.22,0.24-0.51,0.36-0.86,0.36h-5.4c-0.73,0-1.28-0.3-1.63-0.91L254.5,39.29v16.83c0,0.35-0.12,0.64-0.36,0.86
			c-0.24,0.22-0.53,0.33-0.88,0.33h-6.07C246.87,57.32,246.59,57.2,246.35,56.96z"/>
		<path class="st1" d="M281.7,54.5c-2.51-2.2-3.84-5.43-3.99-9.71c-0.03-0.89-0.05-2.26-0.05-4.11c0-1.85,0.02-3.24,0.05-4.16
			c0.12-4.21,1.46-7.45,4.02-9.73c2.56-2.28,5.98-3.42,10.26-3.42c4.25,0,7.66,1.14,10.22,3.42c2.56,2.28,3.89,5.52,4.02,9.73
			c0.06,1.85,0.09,3.24,0.09,4.16c0,0.96-0.03,2.33-0.09,4.11c-0.15,4.27-1.48,7.51-3.97,9.71c-2.5,2.2-5.92,3.3-10.26,3.3
			S284.21,56.7,281.7,54.5z M295.79,49.12c0.95-1,1.45-2.54,1.52-4.61c0.06-1.85,0.09-3.17,0.09-3.97c0-0.8-0.03-2.09-0.09-3.87
			c-0.06-2.07-0.57-3.61-1.52-4.62c-0.95-1-2.22-1.51-3.81-1.51c-1.62,0-2.91,0.5-3.86,1.51c-0.95,1-1.45,2.54-1.52,4.62
			c-0.03,0.89-0.05,2.18-0.05,3.87c0,1.72,0.01,3.04,0.05,3.97c0.06,2.07,0.57,3.61,1.52,4.61c0.95,1,2.23,1.51,3.86,1.51
			C293.57,50.63,294.84,50.12,295.79,49.12z"/>
		<path class="st1" d="M311.38,56.96c-0.23-0.24-0.34-0.52-0.34-0.84V25.04c0-0.35,0.11-0.64,0.34-0.86c0.23-0.22,0.5-0.33,0.8-0.33
			h6.43c0.34,0,0.61,0.11,0.83,0.33c0.21,0.22,0.32,0.51,0.32,0.86v24.77h13.77c0.34,0,0.62,0.12,0.85,0.36
			c0.23,0.24,0.35,0.53,0.35,0.88v5.07c0,0.35-0.12,0.64-0.35,0.86c-0.23,0.22-0.51,0.33-0.85,0.33h-21.35
			C311.87,57.32,311.61,57.2,311.38,56.96z"/>
		<path class="st1" d="M340.78,54.5c-2.51-2.2-3.84-5.43-3.99-9.71c-0.03-0.89-0.05-2.26-0.05-4.11c0-1.85,0.02-3.24,0.05-4.16
			c0.12-4.21,1.46-7.45,4.02-9.73c2.55-2.28,5.98-3.42,10.26-3.42c4.25,0,7.66,1.14,10.22,3.42c2.55,2.28,3.89,5.52,4.02,9.73
			c0.06,1.85,0.09,3.24,0.09,4.16c0,0.96-0.03,2.33-0.09,4.11c-0.15,4.27-1.48,7.51-3.97,9.71c-2.5,2.2-5.92,3.3-10.26,3.3
			C346.72,57.8,343.29,56.7,340.78,54.5z M354.88,49.12c0.95-1,1.45-2.54,1.52-4.61c0.06-1.85,0.09-3.17,0.09-3.97
			c0-0.8-0.03-2.09-0.09-3.87c-0.06-2.07-0.57-3.61-1.52-4.62c-0.95-1-2.22-1.51-3.81-1.51c-1.62,0-2.91,0.5-3.86,1.51
			c-0.95,1-1.45,2.54-1.52,4.62c-0.03,0.89-0.05,2.18-0.05,3.87c0,1.72,0.01,3.04,0.05,3.97c0.06,2.07,0.57,3.61,1.52,4.61
			c0.95,1,2.23,1.51,3.86,1.51C352.66,50.63,353.93,50.12,354.88,49.12z"/>
		<path class="st1" d="M373.15,54.43c-2.51-2.25-3.84-5.46-3.99-9.64c-0.03-0.89-0.05-2.34-0.05-4.35s0.02-3.47,0.05-4.4
			c0.12-4.02,1.46-7.13,4.02-9.35c2.55-2.22,6.02-3.32,10.4-3.32c2.94,0,5.5,0.49,7.69,1.48c2.19,0.99,3.86,2.25,5.01,3.8
			c1.15,1.55,1.75,3.13,1.81,4.76c0,0.29-0.1,0.53-0.3,0.74c-0.2,0.21-0.44,0.31-0.71,0.31h-7.12c-0.31,0-0.54-0.06-0.71-0.17
			c-0.17-0.11-0.33-0.28-0.48-0.5c-0.37-0.89-0.96-1.66-1.77-2.3c-0.81-0.64-1.95-0.96-3.42-0.96c-3.55,0-5.39,1.91-5.51,5.74
			c-0.03,0.89-0.05,2.26-0.05,4.11c0,1.85,0.01,3.24,0.05,4.16c0.12,4.05,1.99,6.07,5.6,6.07c1.78,0,3.18-0.46,4.22-1.39
			c1.04-0.93,1.56-2.33,1.56-4.21v-0.86h-4.09c-0.34,0-0.62-0.12-0.85-0.36c-0.23-0.24-0.35-0.53-0.35-0.89V39.2
			c0-0.35,0.12-0.65,0.35-0.89c0.23-0.24,0.51-0.36,0.85-0.36h11.66c0.34,0,0.62,0.12,0.85,0.36c0.23,0.24,0.34,0.53,0.34,0.89v5.55
			c0,2.71-0.6,5.05-1.81,7.01s-2.92,3.46-5.12,4.5c-2.2,1.04-4.78,1.55-7.71,1.55C379.13,57.8,375.66,56.68,373.15,54.43z"/>
		<path class="st1" d="M410.27,56.96c-0.23-0.24-0.35-0.52-0.35-0.84V45.94l-10.6-20.57c-0.09-0.16-0.14-0.33-0.14-0.52
			c0-0.26,0.1-0.49,0.3-0.69c0.2-0.21,0.42-0.31,0.67-0.31h6.06c0.43,0,0.78,0.11,1.06,0.33c0.28,0.22,0.47,0.46,0.6,0.72l6.38,12
			l6.38-12c0.12-0.25,0.32-0.49,0.6-0.72c0.28-0.22,0.63-0.33,1.06-0.33h6.06c0.24,0,0.47,0.1,0.67,0.31c0.2,0.21,0.3,0.44,0.3,0.69
			c0,0.19-0.05,0.37-0.14,0.52l-10.6,20.57v10.19c0,0.35-0.12,0.64-0.35,0.86c-0.23,0.22-0.51,0.33-0.85,0.33h-6.29
			C410.77,57.32,410.5,57.2,410.27,56.96z"/>
		<path class="st1" d="M121.24,99.42c-0.24-0.24-0.36-0.52-0.36-0.84V67.54c0-0.35,0.11-0.65,0.33-0.89
			c0.22-0.24,0.51-0.36,0.86-0.36h22.24c0.35,0,0.65,0.12,0.88,0.36c0.24,0.24,0.36,0.53,0.36,0.89v5.07c0,0.35-0.12,0.64-0.36,0.86
			c-0.24,0.22-0.53,0.33-0.88,0.33h-14.63v6.65h13.68c0.35,0,0.65,0.12,0.88,0.36c0.24,0.24,0.36,0.53,0.36,0.88v5.07
			c0,0.35-0.12,0.64-0.36,0.86c-0.24,0.22-0.53,0.33-0.88,0.33h-13.68v10.62c0,0.32-0.11,0.6-0.34,0.84s-0.51,0.36-0.86,0.36h-6.41
			C121.76,99.78,121.48,99.66,121.24,99.42z"/>
		<path class="st1" d="M150.46,99.42c-0.24-0.24-0.36-0.52-0.36-0.84V67.49c0-0.35,0.12-0.64,0.36-0.86
			c0.24-0.22,0.52-0.33,0.84-0.33h6.84c0.35,0,0.64,0.11,0.86,0.33c0.22,0.22,0.33,0.51,0.33,0.86v31.09c0,0.32-0.11,0.6-0.33,0.84
			c-0.22,0.24-0.51,0.36-0.86,0.36h-6.84C150.98,99.78,150.7,99.66,150.46,99.42z"/>
		<path class="st1" d="M165.72,99.42c-0.24-0.24-0.36-0.52-0.36-0.84V67.54c0-0.35,0.11-0.65,0.33-0.89
			c0.22-0.24,0.51-0.36,0.86-0.36h13.15c4.21,0,7.5,0.96,9.88,2.87c2.37,1.91,3.56,4.61,3.56,8.08c0,2.23-0.52,4.13-1.55,5.69
			c-1.04,1.56-2.46,2.78-4.28,3.63l6.46,11.67c0.1,0.19,0.14,0.37,0.14,0.53c0,0.26-0.1,0.49-0.29,0.69
			c-0.19,0.21-0.43,0.31-0.72,0.31h-6.74c-0.93,0-1.58-0.43-1.96-1.29l-5.26-10.38h-4.59v10.47c0,0.35-0.12,0.64-0.36,0.86
			c-0.24,0.22-0.53,0.33-0.89,0.33h-6.55C166.23,99.78,165.96,99.66,165.72,99.42z M179.66,81.08c1.37,0,2.42-0.34,3.13-1.03
			c0.72-0.69,1.08-1.63,1.08-2.85c0-1.21-0.36-2.18-1.08-2.92c-0.72-0.73-1.76-1.1-3.13-1.1h-5.31v7.89H179.66z"/>
		<path class="st1" d="M202.9,98.91c-2.17-0.89-3.81-2.07-4.93-3.54c-1.12-1.47-1.71-3.06-1.77-4.78c0-0.29,0.1-0.53,0.31-0.72
			c0.21-0.19,0.45-0.29,0.74-0.29h6.36c0.38,0,0.69,0.06,0.93,0.19c0.24,0.13,0.5,0.35,0.79,0.67c0.41,0.77,1.06,1.4,1.94,1.89
			c0.88,0.49,2.05,0.74,3.52,0.74c1.72,0,3.04-0.26,3.97-0.79c0.92-0.53,1.39-1.25,1.39-2.18c0-0.67-0.24-1.22-0.72-1.65
			c-0.48-0.43-1.24-0.81-2.3-1.15c-1.05-0.33-2.57-0.71-4.54-1.12c-3.86-0.77-6.74-1.93-8.66-3.49c-1.91-1.56-2.87-3.79-2.87-6.7
			c0-1.98,0.55-3.74,1.65-5.28c1.1-1.55,2.66-2.75,4.69-3.61c2.02-0.86,4.38-1.29,7.05-1.29c2.8,0,5.24,0.49,7.29,1.46
			c2.06,0.97,3.63,2.18,4.73,3.63s1.68,2.88,1.75,4.28c0,0.29-0.1,0.53-0.29,0.74c-0.19,0.21-0.43,0.31-0.72,0.31h-6.7
			c-0.7,0-1.24-0.29-1.63-0.86c-0.19-0.67-0.69-1.24-1.48-1.7c-0.8-0.46-1.79-0.69-2.97-0.69c-1.34,0-2.38,0.24-3.11,0.72
			c-0.73,0.48-1.1,1.18-1.1,2.1c0,0.93,0.48,1.65,1.43,2.18c0.96,0.53,2.74,1.06,5.36,1.6c3,0.54,5.38,1.22,7.15,2.03
			c1.77,0.81,3.08,1.87,3.92,3.16c0.84,1.29,1.27,2.92,1.27,4.9c0,2.17-0.62,4.05-1.87,5.64c-1.24,1.59-2.96,2.81-5.16,3.66
			s-4.72,1.27-7.56,1.27C207.7,100.25,205.07,99.81,202.9,98.91z"/>
		<path class="st1" d="M236.88,99.44c-0.24-0.22-0.36-0.51-0.36-0.86V74.09h-8.42c-0.35,0-0.65-0.11-0.88-0.33
			c-0.24-0.22-0.36-0.51-0.36-0.86v-5.36c0-0.35,0.12-0.65,0.36-0.89c0.24-0.24,0.53-0.36,0.88-0.36h25.97
			c0.35,0,0.65,0.12,0.88,0.36c0.24,0.24,0.36,0.53,0.36,0.89v5.36c0,0.35-0.12,0.64-0.36,0.86c-0.24,0.22-0.53,0.33-0.88,0.33
			h-8.42v24.49c0,0.35-0.12,0.64-0.36,0.86c-0.24,0.22-0.53,0.33-0.88,0.33h-6.65C237.41,99.78,237.12,99.66,236.88,99.44z"/>
	</g>
</g>
<g>
	<path class="st2" d="M164.76,143.52c-2.06,1.51-3.77,2.44-6.79,2.44c-5.36,0-8.59-3.8-8.59-8.87c0-6.01,4.4-10.71,10.16-10.71
		c2.79,0,4.8,0.96,6.95,3.04l-1.03,1.56c-1.75-1.85-3.84-2.78-6.09-2.78c-4.54,0-8.29,3.93-8.29,8.84c0,4.34,2.79,7.18,6.91,7.18
		c2.04,0,4.03-0.73,5.81-2.18L164.76,143.52z"/>
	<path class="st2" d="M179.55,143.05c-1.22,1.69-3.21,2.83-5.52,2.83c-3.75,0-5.85-2.99-5.85-6.55c0-4.21,3.11-8.01,7.23-8.01
		c3.32,0,5.52,2.83,5.52,6.4c0,0.36-0.05,0.88-0.09,1.25h-11.07v0.36c0,2.86,1.69,4.91,4.31,4.91c1.73,0,3.3-0.81,4.28-2.26
		L179.55,143.05z M179.39,137.41c-0.09-2.65-1.8-4.34-4.07-4.34c-2.39,0-4.47,1.53-5.29,4.34H179.39z"/>
	<path class="st2" d="M185.28,126.39h1.57l-2.39,19.14h-1.59L185.28,126.39z"/>
	<path class="st2" d="M199.44,143.05c-1.22,1.69-3.21,2.83-5.52,2.83c-3.75,0-5.85-2.99-5.85-6.55c0-4.21,3.11-8.01,7.23-8.01
		c3.32,0,5.52,2.83,5.52,6.4c0,0.36-0.05,0.88-0.09,1.25h-11.07v0.36c0,2.86,1.69,4.91,4.31,4.91c1.73,0,3.3-0.81,4.28-2.26
		L199.44,143.05z M199.28,137.41c-0.09-2.65-1.8-4.34-4.07-4.34c-2.39,0-4.47,1.53-5.29,4.34H199.28z"/>
	<path class="st2" d="M204.94,145.52h-1.66l2.29-19.14h1.62l-0.87,7.38c1.43-1.61,3.07-2.42,4.94-2.42c3.37,0,5.81,2.63,5.81,6.47
		c0,4.58-3.37,8.03-7.09,8.03c-2.18,0-3.67-0.99-4.75-2.96L204.94,145.52z M205.52,139.39c0,2.96,1.87,4.84,4.4,4.84
		c2.97,0,5.55-2.65,5.55-6.34c0-3.02-1.83-4.89-4.38-4.89C207.84,132.99,205.52,135.77,205.52,139.39z"/>
	<path class="st2" d="M221.46,133.43c0.87-1.33,2.11-2.08,3.39-2.08c0.66,0,1.1,0.21,1.43,0.36l-0.77,1.61
		c-0.23-0.1-0.58-0.23-0.98-0.23c-0.82,0-1.66,0.47-2.29,1.3c-0.94,1.25-1.26,2.99-1.54,5.28l-0.73,5.85h-1.57l1.69-13.81h1.59
		L221.46,133.43z"/>
	<path class="st2" d="M238.4,131.72h1.66l-1.66,13.81h-1.62l0.23-2.08c-1.43,1.61-3.07,2.44-4.94,2.44c-3.39,0-5.8-2.68-5.8-6.5
		c0-4.58,3.42-8.03,7.12-8.03c2.18,0,3.65,1.01,4.73,2.99L238.4,131.72z M237.82,137.85c0-2.96-1.87-4.86-4.4-4.86
		c-3,0-5.55,2.7-5.55,6.37c0,3.02,1.85,4.89,4.4,4.89C235.54,144.25,237.82,141.44,237.82,137.85z"/>
	<path class="st2" d="M245.72,126.54h1.57l-0.61,5.17h2.46l-0.16,1.56h-2.48l-1.5,12.25h-1.61l1.52-12.25h-2.15l0.19-1.56h2.13
		L245.72,126.54z"/>
	<path class="st2" d="M251.38,131.72h1.52l-1.66,13.81h-1.57L251.38,131.72z M253.94,127.45c0,0.81-0.58,1.43-1.29,1.43
		s-1.29-0.65-1.29-1.43c0-0.78,0.56-1.43,1.29-1.43C253.35,126.02,253.94,126.67,253.94,127.45z"/>
	<path class="st2" d="M257.68,133.82c1.26-1.64,2.72-2.47,4.4-2.47c2.46,0,4.26,1.79,4.26,4.76c0,1.33-0.16,2.37-0.26,3.07
		l-0.77,6.34h-1.57l0.77-6.34c0.09-0.86,0.23-1.87,0.23-2.96c0-1.95-1.1-3.22-2.86-3.22c-1.57,0-3.02,0.86-3.84,2.29
		c-0.58,1.01-0.84,2.47-1.08,4.26l-0.75,5.98h-1.57l1.73-13.81h1.52L257.68,133.82z"/>
	<path class="st2" d="M281.2,131.72h1.57l-1.43,11.67c-0.28,2.31-0.54,4.13-1.97,5.64c-1.1,1.17-2.88,1.9-4.82,1.9
		c-2.76,0-4.78-1.25-5.83-3.72l1.43-0.55c0.84,1.72,2.39,2.63,4.38,2.63c2.6,0,4.52-1.59,4.82-3.41c0.14-0.78,0.28-1.59,0.38-2.26
		l0.07-0.55c-1.36,1.64-3,2.44-4.94,2.44c-3.56,0-5.71-2.73-5.71-6.29c0-4.42,3.51-7.88,7-7.88c2.06,0,3.58,1.01,4.75,2.99
		L281.2,131.72z M270.74,139.31c0,2.78,1.71,4.58,4.28,4.58c3.14,0,5.52-2.57,5.52-6.11c0-2.99-1.94-4.78-4.1-4.78
		C273.29,132.99,270.74,135.64,270.74,139.31z"/>
	<path class="st2" d="M336.6,131.72h1.66l3.21,10.19l5.34-10.19h1.75l-9.83,18.85h-1.8l3.51-6.73L336.6,131.72z"/>
	<path class="st2" d="M360.66,143.05c-1.22,1.69-3.21,2.83-5.52,2.83c-3.75,0-5.85-2.99-5.85-6.55c0-4.21,3.11-8.01,7.23-8.01
		c3.32,0,5.52,2.83,5.52,6.4c0,0.36-0.05,0.88-0.09,1.25h-11.07v0.36c0,2.86,1.69,4.91,4.31,4.91c1.73,0,3.3-0.81,4.28-2.26
		L360.66,143.05z M360.5,137.41c-0.09-2.65-1.8-4.34-4.07-4.34c-2.39,0-4.47,1.53-5.29,4.34H360.5z"/>
	<path class="st2" d="M376.62,131.72h1.66l-1.66,13.81h-1.62l0.23-2.08c-1.43,1.61-3.07,2.44-4.94,2.44c-3.39,0-5.8-2.68-5.8-6.5
		c0-4.58,3.42-8.03,7.12-8.03c2.18,0,3.65,1.01,4.73,2.99L376.62,131.72z M376.04,137.85c0-2.96-1.87-4.86-4.4-4.86
		c-3,0-5.55,2.7-5.55,6.37c0,3.02,1.85,4.89,4.4,4.89C373.77,144.25,376.04,141.44,376.04,137.85z"/>
	<path class="st2" d="M382.7,133.43c0.87-1.33,2.11-2.08,3.39-2.08c0.66,0,1.1,0.21,1.43,0.36l-0.77,1.61
		c-0.23-0.1-0.59-0.23-0.98-0.23c-0.82,0-1.66,0.47-2.29,1.3c-0.94,1.25-1.26,2.99-1.54,5.28l-0.73,5.85h-1.57l1.69-13.81h1.59
		L382.7,133.43z"/>
	<path class="st2" d="M387.41,142.35c0.94,1.25,1.97,1.87,3,1.87c1.12,0,2.29-1.01,2.29-2.42c0-0.75-0.35-1.51-0.98-2
		c-2.53-2-3.86-2.81-3.86-4.76c0-2.08,1.64-3.69,3.7-3.69c1.54,0,2.41,0.81,3.23,1.9l-0.87,1.46c-0.68-1.07-1.47-1.72-2.48-1.72
		c-1.17,0-1.99,1.07-1.99,1.98c0,0.62,0.4,1.3,1.08,1.79c2.25,1.64,3.77,2.65,3.77,5.1c0,2.39-1.71,4-3.96,4
		c-1.5,0-2.86-0.81-3.88-2.26L387.41,142.35z"/>
</g>
<g>
	<path class="st3" d="M307.35,144.94l-2.21,6.59c-1.11,0.22-2.29,0.33-3.55,0.33c-1.21,0-2.56-0.08-4.06-0.25
		c-2.71-0.29-4.68-0.43-5.94-0.43c-1.67,0-3.43,0.23-5.29,0.69v-1.01c1.57-1.06,3.27-2.31,5.11-3.73s3.77-3.02,5.79-4.78
		c2.03-1.81,3.63-3.43,4.8-4.85c1.17-1.42,2.03-2.81,2.57-4.15c0.54-1.34,0.82-2.72,0.82-4.15c0-1.96-0.5-3.52-1.5-4.69
		c-1-1.17-2.34-1.76-4-1.76c-1.64,0-3.08,0.54-4.31,1.63c-1.23,1.09-1.85,2.37-1.85,3.84c0,0.72,0.2,1.37,0.6,1.94
		c0.4,0.57,0.91,0.95,1.54,1.14c-0.39,0.68-0.99,1.01-1.81,1.01c-0.8,0-1.46-0.28-1.97-0.83c-0.52-0.55-0.78-1.25-0.78-2.1
		c0-1.91,1-3.67,3.01-5.29c2-1.62,4.18-2.43,6.52-2.43c2.32,0,4.18,0.68,5.6,2.03c1.41,1.35,2.12,3.14,2.12,5.36
		c0,1.71-0.4,3.32-1.21,4.82c-0.81,1.5-2.17,3.16-4.08,5c-1.71,1.67-4.61,4-8.69,6.99c-1.86,1.4-3.06,2.31-3.59,2.72
		c1.01-0.17,2.06-0.25,3.15-0.25c0.87,0,1.7,0.04,2.5,0.11l2.93,0.22c0.82,0.05,1.42,0.07,1.81,0.07c1.33,0,2.4-0.29,3.22-0.87
		c0.82-0.58,1.56-1.54,2.21-2.9H307.35z"/>
	<path class="st3" d="M314.01,134.87l4.2-12.57c0.82-0.14,1.63-0.22,2.43-0.22c0.97,0,2.17,0.07,3.62,0.22
		c1.3,0.1,2.23,0.15,2.79,0.15c1.01,0,1.83-0.16,2.45-0.49c0.62-0.33,1.08-0.83,1.39-1.5h0.72l-1.74,5
		c-0.63,0.15-1.45,0.22-2.46,0.22c-1.14,0-2.25-0.04-3.33-0.11l-2.79-0.22c-0.31-0.02-0.76-0.04-1.34-0.04
		c-0.51,0-1.09,0.05-1.74,0.14l-2.06,5.98c1.01-0.34,2.04-0.51,3.08-0.51c1.71,0,3.28,0.41,4.69,1.23c1.41,0.82,2.52,1.94,3.33,3.35
		c0.81,1.41,1.21,2.99,1.21,4.73c0,1.67-0.31,3.23-0.94,4.69s-1.49,2.74-2.59,3.84s-2.39,1.97-3.88,2.61
		c-1.49,0.64-3.04,0.96-4.65,0.96c-2.03,0-3.66-0.48-4.89-1.43c-1.23-0.95-1.85-2.2-1.85-3.75c0-0.94,0.25-1.73,0.74-2.37
		c0.5-0.64,1.13-0.96,1.9-0.96c-0.26,0.65-0.4,1.28-0.4,1.88c0,1.55,0.56,2.85,1.68,3.91c1.12,1.06,2.54,1.59,4.26,1.59
		c1.57,0,3.01-0.41,4.31-1.23c1.3-0.82,2.34-1.94,3.1-3.37s1.14-2.93,1.14-4.53c0-1.52-0.34-2.89-1.01-4.11
		c-0.68-1.22-1.62-2.19-2.83-2.92c-1.21-0.72-2.5-1.09-3.88-1.09c-1.23,0-2.51,0.38-3.84,1.12L314.01,134.87z"/>
</g>
</svg>
